<?xml version="1.0" encoding="iso-8859-1"?>
<!-- Generator: Adobe Illustrator 19.0.0, SVG Export Plug-In . SVG Version: 6.00 Build 0)  -->
<svg version="1.1" id="Layer_1" xmlns="http://www.w3.org/2000/svg" xmlns:xlink="http://www.w3.org/1999/xlink" x="0px" y="0px"
	 viewBox="0 0 512 512" style="enable-background:new 0 0 512 512;" xml:space="preserve">
<g>
	<g>
		<path d="M445.545,130.663H445.2c0.215-2.286,0.345-4.613,0.345-6.963c0-39.591-32.099-71.69-71.69-71.69
			c-11.21,0-21.817,2.576-31.258,7.168c-5.066-12.989-12.978-24.555-22.959-33.943c-1.24-1.174-2.522-2.317-3.838-3.417
			c-0.874-0.733-1.757-1.455-2.662-2.156c-3.935-3.072-8.138-5.842-12.547-8.267c-1.11-0.604-2.22-1.186-3.352-1.746
			c-1.132-0.56-2.274-1.099-3.427-1.617c-1.736-0.777-3.503-1.498-5.282-2.166c-1.271-0.474-2.544-0.916-3.838-1.337
			c-1.294-0.42-2.598-0.819-3.913-1.174c-0.496-0.14-0.992-0.269-1.488-0.399c-0.992-0.248-1.994-0.496-3.007-0.722
			c-0.496-0.119-1.002-0.227-1.509-0.324c-0.754-0.151-1.519-0.302-2.284-0.442c-0.669-0.118-1.347-0.237-2.015-0.335
			c-0.506-0.086-1.013-0.161-1.519-0.227c-1.023-0.14-2.048-0.258-3.072-0.378c-0.517-0.054-1.035-0.108-1.552-0.151
			c-0.69-0.064-1.38-0.118-2.069-0.161C260.181,0.076,258.089,0,255.977,0c-3.029,0-6.014,0.14-8.968,0.432
			c-0.884,0.086-1.767,0.184-2.641,0.291c-0.873,0.108-1.757,0.237-2.619,0.367c-0.463,0.064-0.927,0.14-1.391,0.226
			c-0.927,0.161-1.843,0.324-2.759,0.506c-0.916,0.184-1.821,0.388-2.727,0.593c-1.358,0.312-2.705,0.657-4.042,1.035
			c-0.884,0.248-1.767,0.507-2.641,0.787c-1.757,0.539-3.493,1.143-5.206,1.79c-0.852,0.323-1.703,0.668-2.544,1.013
			c-1.682,0.701-3.342,1.445-4.969,2.242c-0.819,0.388-1.627,0.798-2.425,1.218c-1.122,0.582-2.22,1.186-3.309,1.811
			c-3.815,2.188-7.459,4.646-10.908,7.341c-0.905,0.701-1.79,1.422-2.662,2.156c-1.315,1.099-2.598,2.242-3.838,3.417
			c-9.981,9.388-17.893,20.943-22.959,33.932c-9.443-4.57-20.038-7.147-31.227-7.147c-39.591,0-71.69,32.099-71.69,71.69
			c0,2.35,0.13,4.678,0.345,6.963h-0.345c-30.516,0-55.253,24.737-55.253,55.253c0,30.505,24.737,55.242,55.253,55.242
			c9.292,0,18.043-2.296,25.729-6.349c1.843,27.443,18.442,50.844,41.93,62.324c0.011,0,0.011,0,0.011,0
			c7.017,3.428,14.649,5.789,22.679,6.877c3.331,0.453,6.726,0.69,10.175,0.69c5.4,0,10.682-0.572,15.759-1.67
			c-1.595-1.897-3.104-3.869-4.527-5.896c-2.015-2.846-3.869-5.799-5.551-8.871c-5.853-10.628-9.712-22.571-11.049-35.377
			c-2.404-23.013,3.73-45.994,17.268-64.738l26.215,18.938c-8.871,12.277-12.891,27.357-11.318,42.437
			c1.023,9.809,4.311,18.853,9.292,26.657c5.605,8.774,13.355,15.986,22.42,20.955h-1.552c2.555,1.143,5.173,2.145,7.858,3.018
			c0.021,0.011,0.054,0.021,0.075,0.021c7.599,2.447,15.705,3.762,24.113,3.762c11.415,0,22.247-2.436,32.035-6.802
			c4.409-1.972,8.612-4.334,12.547-7.039c3.633,2.673,7.523,5.034,11.62,7.039c0,0,0,0,0.011,0
			c9.917,4.851,21.052,7.567,32.833,7.567c3.449,0,6.845-0.237,10.175-0.69c8.041-1.089,15.672-3.449,22.689-6.877
			c23.487-11.479,40.087-34.881,41.93-62.324c7.685,4.053,16.437,6.349,25.729,6.349c30.516,0,55.253-24.737,55.253-55.242
			C500.798,155.4,476.061,130.663,445.545,130.663z"/>
	</g>
</g>
<g>
	<g>
		<path d="M264.773,336.529c-3.298,0.345-6.575,0.517-9.83,0.517c-8.537,0-16.869-1.164-24.813-3.363l23.853,46.177h7.513
			l22.809-47.234C277.912,334.308,271.423,336.011,264.773,336.529z"/>
	</g>
</g>
<g>
	<g>
		<path d="M355.004,336.583h-0.013c-3.298,0.302-6.618,0.453-9.97,0.453c-2.943,0-5.864-0.118-8.774-0.356
			c-5.659-0.453-11.253-1.347-16.708-2.673l-37.748,78.19h-47.503l-40.561-78.514c-5.864,1.509-11.878,2.511-17.979,2.997
			c-2.9,0.237-5.831,0.356-8.774,0.356c-3.352,0-6.672-0.151-9.97-0.453h-0.011c-7.19-0.668-14.24-2.048-21.073-4.107l30.752,53
			L204.294,512h108.813l32.38-126.804l30.59-52.719C369.244,334.535,362.194,335.915,355.004,336.583z"/>
	</g>
</g>
<g>
</g>
<g>
</g>
<g>
</g>
<g>
</g>
<g>
</g>
<g>
</g>
<g>
</g>
<g>
</g>
<g>
</g>
<g>
</g>
<g>
</g>
<g>
</g>
<g>
</g>
<g>
</g>
<g>
</g>
</svg>
