<?xml version="1.0" encoding="iso-8859-1"?>
<!-- Generator: Adobe Illustrator 19.0.0, SVG Export Plug-In . SVG Version: 6.00 Build 0)  -->
<svg version="1.1" id="Capa_1" xmlns="http://www.w3.org/2000/svg" xmlns:xlink="http://www.w3.org/1999/xlink" x="0px" y="0px"
	 viewBox="0 0 490.002 490.002" style="enable-background:new 0 0 490.002 490.002;" xml:space="preserve">
<g>
	<g>
		<g>
			<path d="M71.1,226.051v148.4l137.2-54.4v-79.3l20.6-66.1L71.1,226.051z"/>
			<path d="M227.7,253.951v151.5c5.4,0,10.9,0,16.3,0c144.2,0,244.8-39.6,244.8-75v-132C488.8,198.451,419.2,260.351,227.7,253.951z
				"/>
			<path d="M50.1,225.651v148.8c-31.4-13.2-50.1-29.1-50.1-43.9v-132.1C0,198.451,30.8,220.651,50.1,225.651z"/>
			<path d="M255.3,162.651l-22.5,71.5c239.1-1.9,257.4-68.6,257.2-74.6c-1.2-36.7-100.6-75-244.8-75s-244.8,39.6-244.8,75
				c0,16.3,22.5,34.2,60.6,48.2l181.1-57.9C245.6,148.651,257.2,149.351,255.3,162.651z"/>
		</g>
	</g>
</g>
<g>
</g>
<g>
</g>
<g>
</g>
<g>
</g>
<g>
</g>
<g>
</g>
<g>
</g>
<g>
</g>
<g>
</g>
<g>
</g>
<g>
</g>
<g>
</g>
<g>
</g>
<g>
</g>
<g>
</g>
</svg>
