<?xml version="1.0" encoding="iso-8859-1"?>
<!-- Generator: Adobe Illustrator 18.0.0, SVG Export Plug-In . SVG Version: 6.00 Build 0)  -->
<!DOCTYPE svg PUBLIC "-//W3C//DTD SVG 1.1//EN" "http://www.w3.org/Graphics/SVG/1.1/DTD/svg11.dtd">
<svg version="1.1" id="Capa_1" xmlns="http://www.w3.org/2000/svg" xmlns:xlink="http://www.w3.org/1999/xlink" x="0px" y="0px"
	 viewBox="0 0 297 297" style="enable-background:new 0 0 297 297;" xml:space="preserve">
<g>
	<path d="M130.018,131.138c-3.603,0-6.199,2.178-6.199,13.486v8.124c0,11.308,2.597,13.485,6.199,13.485
		c3.601,0,6.197-2.178,6.197-13.485v-8.124C136.215,133.315,133.618,131.138,130.018,131.138z"/>
	<path d="M297,96.084c0-4.308-3.121-7.879-7.225-8.596V69.877c0-0.046-0.006-0.092-0.007-0.138c4.106-0.714,7.231-4.286,7.231-8.598
		c0-4.824-3.911-8.735-8.734-8.735c-4.314,0-7.885,3.127-8.596,7.234c-0.047,0-0.092-0.007-0.138-0.007h-17.61
		c-0.717-4.104-4.291-7.228-8.598-7.228c-4.31,0-7.882,3.123-8.597,7.228h-17.75c-0.714-4.104-4.284-7.228-8.594-7.228
		s-7.882,3.123-8.597,7.228h-17.748c-0.716-4.104-4.289-7.228-8.596-7.228c-4.31,0-7.881,3.123-8.596,7.228h-17.75
		c-0.715-4.104-4.289-7.228-8.597-7.228c-4.307,0-7.88,3.123-8.596,7.228h-17.749c-0.715-4.104-4.288-7.228-8.596-7.228
		c-4.308,0-7.881,3.123-8.596,7.228h-17.75c-0.715-4.104-4.286-7.228-8.595-7.228c-4.311,0-7.882,3.123-8.597,7.228H52.277
		c-0.716-4.104-4.289-7.228-8.6-7.228c-4.31,0-7.88,3.123-8.595,7.228H17.472c-0.047,0-0.091,0.007-0.138,0.007
		c-0.712-4.107-4.284-7.234-8.596-7.234C3.915,52.406,0,56.317,0,61.142c0,4.312,3.129,7.884,7.235,8.598
		c-0.001,0.046-0.007,0.092-0.007,0.138v17.611C3.125,88.204,0,91.776,0,96.084c0,4.31,3.125,7.882,7.228,8.598v17.748
		C3.125,123.146,0,126.718,0,131.026c0,4.311,3.125,7.882,7.228,8.598v17.749C3.125,158.089,0,161.66,0,165.973
		c0,4.309,3.125,7.879,7.228,8.596v17.748C3.125,193.034,0,196.605,0,200.914c0,4.31,3.125,7.88,7.228,8.596v17.613
		c0,0.045,0.006,0.092,0.007,0.138C3.129,227.975,0,231.547,0,235.856c0,4.826,3.915,8.737,8.738,8.737
		c4.31,0,7.883-3.127,8.596-7.235c0.047,0.001,0.091,0.007,0.138,0.007h17.611c0.716,4.106,4.286,7.229,8.595,7.229
		c4.31,0,7.883-3.123,8.6-7.229h17.746c0.716,4.106,4.287,7.229,8.597,7.229c4.309,0,7.879-3.123,8.595-7.229h17.75
		c0.716,4.106,4.288,7.229,8.596,7.229c4.308,0,7.88-3.123,8.596-7.229h17.749c0.716,4.106,4.29,7.229,8.596,7.229
		c4.308,0,7.881-3.123,8.597-7.229h17.75c0.716,4.106,4.286,7.229,8.596,7.229c4.307,0,7.879-3.123,8.596-7.229h17.748
		c0.717,4.106,4.287,7.229,8.597,7.229s7.879-3.123,8.594-7.229h17.75c0.716,4.106,4.287,7.229,8.597,7.229
		c4.307,0,7.881-3.123,8.598-7.229h17.61c0.047,0,0.091-0.006,0.138-0.007c0.712,4.108,4.282,7.235,8.596,7.235
		c4.823,0,8.734-3.911,8.734-8.737c0-4.31-3.125-7.882-7.231-8.596c0.001-0.046,0.007-0.093,0.007-0.138V209.51
		c4.103-0.716,7.225-4.286,7.225-8.596c0-4.309-3.121-7.88-7.225-8.598v-17.748c4.103-0.717,7.225-4.287,7.225-8.596
		c0-4.313-3.121-7.884-7.225-8.6v-17.749c4.103-0.716,7.225-4.286,7.225-8.598c0-4.309-3.121-7.88-7.225-8.597v-17.748
		C293.879,103.966,297,100.394,297,96.084z M96.434,165.479c0.922,0,1.676,0.754,1.676,1.675v10.973
		c0,0.922-0.754,1.676-1.676,1.676H57.401c-0.921,0-1.676-0.754-1.676-1.676v-8.879c0-9.213,4.104-16.249,9.968-20.604l7.204-5.361
		c8.878-6.617,9.381-6.952,9.381-9.298c0-2.68-1.257-3.769-7.874-3.769c-5.276,0-11.14,0.586-16.333,1.005c-0.084,0-0.084,0-0.168,0
		c-0.837,0-1.507-0.755-1.507-1.676v-8.124c0-0.922,0.754-1.257,1.591-1.592c5.026-1.759,11.895-3.1,18.847-3.1
		c16.166,0,22.196,5.528,22.196,16.585c0,6.534-3.183,11.644-8.795,15.329l-6.785,4.521c-6.448,4.272-12.313,7.287-12.313,12.063
		v0.251H96.434z M153.303,152.748c0,19.349-8.377,27.809-23.285,27.809c-14.91,0-23.287-8.46-23.287-27.809v-8.124
		c0-19.35,8.377-27.893,23.287-27.893c14.908,0,23.285,8.544,23.285,27.893V152.748z M186.354,112.232
		c6.431,0,11.648,5.214,11.648,11.647c0,6.435-5.217,11.649-11.648,11.649c-6.433,0-11.646-5.215-11.646-11.649
		C174.708,117.446,179.922,112.232,186.354,112.232z M232.939,182.117c-6.431,0-11.646-5.213-11.646-11.646
		c0-6.431,5.216-11.645,11.646-11.645c6.433,0,11.648,5.215,11.648,11.645C244.588,176.902,239.372,182.117,232.939,182.117z
		 M243.835,123.126l-58.234,58.238c-1.4,1.4-3.236,2.101-5.07,2.101c-1.835,0-3.671-0.7-5.069-2.1
		c-2.802-2.8-2.802-7.34-0.002-10.141l58.234-58.238c2.801-2.801,7.342-2.799,10.141,0
		C246.635,115.785,246.635,120.326,243.835,123.126z"/>
</g>
<g>
</g>
<g>
</g>
<g>
</g>
<g>
</g>
<g>
</g>
<g>
</g>
<g>
</g>
<g>
</g>
<g>
</g>
<g>
</g>
<g>
</g>
<g>
</g>
<g>
</g>
<g>
</g>
<g>
</g>
</svg>
