<?xml version="1.0" encoding="iso-8859-1"?>
<!-- Generator: Adobe Illustrator 18.0.0, SVG Export Plug-In . SVG Version: 6.00 Build 0)  -->
<!DOCTYPE svg PUBLIC "-//W3C//DTD SVG 1.1//EN" "http://www.w3.org/Graphics/SVG/1.1/DTD/svg11.dtd">
<svg version="1.1" id="Capa_1" xmlns="http://www.w3.org/2000/svg" xmlns:xlink="http://www.w3.org/1999/xlink" x="0px" y="0px"
	 viewBox="0 0 55.705 55.705" style="enable-background:new 0 0 55.705 55.705;" xml:space="preserve">
<g>
	<path d="M33.484,31.722c0.03-0.785-0.252-1.529-0.796-2.095c-0.544-0.565-1.276-0.877-2.062-0.877h-5.149
		c-0.785,0-1.518,0.311-2.061,0.876c-0.545,0.565-0.828,1.309-0.798,2.095c0.125,3.314,0.044,11.428-3.402,15.155
		c-0.089,0.092-2.176,2.26-1.83,4.791c0.201,1.474,1.145,2.708,2.802,3.669c0.414,0.241,0.902,0.369,1.413,0.369h12.902
		c0.51,0,0.997-0.127,1.41-0.367c1.659-0.963,2.603-2.197,2.804-3.67c0.346-2.532-1.74-4.7-1.811-4.771
		C33.441,43.149,33.359,35.035,33.484,31.722z"/>
	<path d="M41.773,1.782c-9.084-2.369-18.681-2.392-27.911,0.022C5.944,4.54,1.523,9.012,0.719,15.097L0.71,15.228
		c0,7.432,6.046,13.478,13.478,13.478l0.172-0.015c8.887-1.547,18.102-1.547,26.988,0l0.172,0.015
		c7.432,0,13.478-6.046,13.476-13.54C54.571,8.453,50.249,4.077,41.773,1.782z M16.445,8.518c-2.51,0.688-8.319,2.92-8.078,8.764
		c0.022,0.552-0.406,1.018-0.958,1.04c-0.014,0.001-0.027,0.001-0.042,0.001c-0.533,0-0.976-0.421-0.998-0.959
		C6.16,12.315,9.73,8.286,15.916,6.589c0.53-0.146,1.083,0.166,1.229,0.699C17.291,7.821,16.978,8.371,16.445,8.518z M26.222,7.403
		c-0.003,0-0.007,0-0.01,0c-2.195-0.027-4.291,0.111-6.27,0.394c-0.048,0.007-0.096,0.01-0.143,0.01
		c-0.49,0-0.918-0.359-0.989-0.858c-0.078-0.547,0.302-1.054,0.849-1.132c2.079-0.297,4.301-0.44,6.572-0.413
		c0.553,0.006,0.996,0.458,0.99,1.01C27.216,6.961,26.77,7.403,26.222,7.403z"/>
</g>
<g>
</g>
<g>
</g>
<g>
</g>
<g>
</g>
<g>
</g>
<g>
</g>
<g>
</g>
<g>
</g>
<g>
</g>
<g>
</g>
<g>
</g>
<g>
</g>
<g>
</g>
<g>
</g>
<g>
</g>
</svg>
