<?xml version="1.0" encoding="iso-8859-1"?>
<!-- Generator: Adobe Illustrator 19.0.0, SVG Export Plug-In . SVG Version: 6.00 Build 0)  -->
<svg version="1.1" id="Layer_1" xmlns="http://www.w3.org/2000/svg" xmlns:xlink="http://www.w3.org/1999/xlink" x="0px" y="0px"
	 viewBox="0 0 512 512" style="enable-background:new 0 0 512 512;" xml:space="preserve">
<g>
	<g>
		<path d="M223.219,92.41c-21.935-2.241-41.742,13.686-44.051,35.665l-7.334,69.783c-1.121,10.647,1.977,21.089,8.714,29.411
			c6.742,8.318,16.313,13.515,26.96,14.63c1.419,0.147,2.823,0.22,4.223,0.22c20.232,0,37.671-15.325,39.834-35.88l7.334-69.788
			C261.203,114.477,245.198,94.724,223.219,92.41z M238.964,134.357l-7.335,69.788c-1.16,10.97-11.014,18.911-22.028,17.82
			c-5.323-0.558-10.114-3.156-13.48-7.315c-3.371-4.154-4.917-9.375-4.355-14.698l7.335-69.783
			c1.159-10.985,11.122-18.906,22.023-17.825C232.114,113.499,240.119,123.377,238.964,134.357z"/>
	</g>
</g>
<g>
	<g>
		<path d="M479.497,253.202l-49.615-49.615c-15.623-15.623-41.057-15.618-56.68,0.005c-15.628,15.633-15.628,41.057-0.005,56.68
			l49.615,49.615c7.569,7.569,17.629,11.738,28.33,11.738c0,0,0.005,0,0.01,0c10.706-0.005,20.766-4.174,28.335-11.748
			c7.56-7.555,11.729-17.615,11.738-28.32C491.23,270.841,487.066,260.772,479.497,253.202z M465.317,295.707
			c-3.787,3.787-8.817,5.871-14.17,5.876h-0.005c-5.348,0-10.378-2.084-14.16-5.867l-49.615-49.615
			c-7.809-7.809-7.804-20.526,0.005-28.34c3.909-3.905,9.042-5.862,14.175-5.862c5.133,0,10.261,1.952,14.165,5.857l49.615,49.615
			c3.777,3.782,5.857,8.812,5.857,14.17C471.179,286.9,469.094,291.93,465.317,295.707z"/>
	</g>
</g>
<g>
	<g>
		<path d="M148.606,269.589H78.441c-22.096,0-40.073,17.981-40.073,40.083c0,22.102,17.977,40.083,40.073,40.083h70.165
			c22.096,0,40.073-17.982,40.073-40.083C188.679,287.57,170.703,269.589,148.606,269.589z M148.606,329.713H78.441
			c-11.043,0-20.032-8.988-20.032-20.042s8.988-20.042,20.032-20.042h70.165c11.043,0,20.032,8.988,20.032,20.042
			S159.65,329.713,148.606,329.713z"/>
	</g>
</g>
<g>
	<g>
		<path d="M138.781,73.323C123.148,57.69,97.72,57.695,82.106,73.318l-49.614,49.615c-15.623,15.623-15.623,41.047,0.005,56.675
			c7.814,7.819,18.084,11.729,28.35,11.729c10.26,0,20.521-3.91,28.33-11.719l49.615-49.615
			C154.414,114.379,154.414,88.951,138.781,73.323z M124.621,115.833l-49.615,49.614c-7.809,7.814-20.521,7.804-28.34-0.01
			c-7.814-7.814-7.814-20.526-0.005-28.335l49.614-49.614c3.905-3.904,9.032-5.857,14.165-5.857c5.128,0,10.26,1.957,14.17,5.862
			C132.425,95.307,132.43,108.023,124.621,115.833z"/>
	</g>
</g>
<g>
	<g>
		<path d="M469.466,393.987c-15.633-15.633-41.062-15.628-56.675-0.005l-49.615,49.615c-15.623,15.623-15.623,41.047,0.005,56.675
			c7.814,7.819,18.084,11.729,28.35,11.729c10.26,0,20.521-3.91,28.33-11.719l49.615-49.615
			C485.099,435.044,485.099,409.615,469.466,393.987z M455.306,436.497l-49.615,49.615c-7.814,7.814-20.526,7.804-28.34-0.01
			c-7.814-7.814-7.814-20.526-0.005-28.335l49.615-49.615c3.905-3.904,9.032-5.857,14.165-5.857c5.128,0,10.261,1.957,14.17,5.862
			C463.11,415.971,463.115,428.688,455.306,436.497z"/>
	</g>
</g>
<g>
	<g>
		<path d="M425.415,20.053c-5.348-9.257-13.984-15.887-24.323-18.667c-10.339-2.77-21.152-1.365-30.424,3.988l-60.765,35.087
			c-19.136,11.048-25.713,35.611-14.664,54.747c5.348,9.257,13.984,15.887,24.323,18.666c3.464,0.93,6.977,1.39,10.471,1.39
			c6.938,0,13.788-1.82,19.954-5.377L410.751,74.8c9.272-5.353,15.902-13.994,18.672-24.338
			C432.192,40.124,430.768,29.325,425.415,20.053z M410.061,45.281c-1.38,5.167-4.697,9.487-9.331,12.159l-60.765,35.087
			c-4.629,2.676-10.036,3.376-15.202,1.991c-5.177-1.39-9.492-4.702-12.164-9.331c-5.529-9.571-2.241-21.847,7.325-27.371
			l60.765-35.082c4.629-2.681,10.036-3.371,15.203-1.991c5.177,1.39,9.492,4.702,12.164,9.331
			C410.736,34.712,411.446,40.114,410.061,45.281z"/>
	</g>
</g>
<g>
	<g>
		<path d="M346.046,305.84c-3.665-10.05-11.029-18.079-20.731-22.605c-20.017-9.341-43.924-0.646-53.26,19.371l-29.656,63.598
			c-9.336,20.027-0.636,43.914,19.395,53.255c5.382,2.51,11.127,3.773,16.9,3.773c4.619,0,9.258-0.807,13.73-2.432
			c10.075-3.66,18.109-11.019,22.63-20.717l29.656-63.593C349.236,326.787,349.711,315.9,346.046,305.84z M326.548,328.015
			l-29.656,63.598c-2.26,4.844-6.278,8.519-11.312,10.348c-5.035,1.835-10.481,1.595-15.315-0.665
			c-10.016-4.673-14.366-16.616-9.703-26.622l29.656-63.594c4.673-10.006,16.631-14.331,26.628-9.683
			c4.854,2.265,8.538,6.278,10.368,11.307C329.043,317.73,328.808,323.166,326.548,328.015z"/>
	</g>
</g>
<g>
</g>
<g>
</g>
<g>
</g>
<g>
</g>
<g>
</g>
<g>
</g>
<g>
</g>
<g>
</g>
<g>
</g>
<g>
</g>
<g>
</g>
<g>
</g>
<g>
</g>
<g>
</g>
<g>
</g>
</svg>
