<?xml version="1.0" encoding="iso-8859-1"?>
<!-- Generator: Adobe Illustrator 17.1.0, SVG Export Plug-In . SVG Version: 6.00 Build 0)  -->
<!DOCTYPE svg PUBLIC "-//W3C//DTD SVG 1.1//EN" "http://www.w3.org/Graphics/SVG/1.1/DTD/svg11.dtd">
<svg version="1.1" id="Capa_1" xmlns="http://www.w3.org/2000/svg" xmlns:xlink="http://www.w3.org/1999/xlink" x="0px" y="0px"
	 viewBox="0 0 209.333 209.333" style="enable-background:new 0 0 209.333 209.333;" xml:space="preserve">
<path d="M53.649,86.333H21.685c-4.142,0-7.5,3.358-7.5,7.5v36.71v15.846c0,9.445,6.045,17.502,14.469,20.512v27.432h-6.969
	c-4.142,0-7.5,3.358-7.5,7.5s3.358,7.5,7.5,7.5h14.469h3.027h14.469c4.142,0,7.5-3.358,7.5-7.5s-3.358-7.5-7.5-7.5H46.68v-27.432
	c8.423-3.01,14.469-11.067,14.469-20.512v-15.846v-36.71C61.149,89.691,57.791,86.333,53.649,86.333z M29.185,101.333h16.964v21.71
	H29.185V101.333z M187.649,86.333h-31.964c-4.142,0-7.5,3.358-7.5,7.5v36.71v15.846c0,9.445,6.045,17.502,14.469,20.512v27.432
	h-6.969c-4.142,0-7.5,3.358-7.5,7.5s3.358,7.5,7.5,7.5h14.469h3.027h14.469c4.142,0,7.5-3.358,7.5-7.5s-3.358-7.5-7.5-7.5h-6.969
	v-27.432c8.423-3.01,14.469-11.067,14.469-20.512v-15.846v-36.71C195.149,89.691,191.791,86.333,187.649,86.333z M163.185,101.333
	h16.964v21.71h-16.964V101.333z M119.833,62.389V7.5c0-4.142-3.358-7.5-7.5-7.5H97c-4.142,0-7.5,3.358-7.5,7.5v54.889
	C77.193,68.191,69,80.747,69,94.667v8.5V174.5v22.042c0,7.053,5.738,12.792,12.792,12.792h45.75c7.053,0,12.792-5.738,12.792-12.792
	V174.5v-71.333v-8.5C140.333,80.747,132.14,68.191,119.833,62.389z M125.333,110.667V167H84v-56.333H125.333z"/>
<g>
</g>
<g>
</g>
<g>
</g>
<g>
</g>
<g>
</g>
<g>
</g>
<g>
</g>
<g>
</g>
<g>
</g>
<g>
</g>
<g>
</g>
<g>
</g>
<g>
</g>
<g>
</g>
<g>
</g>
</svg>
